<?xml version="1.0" standalone="no"?>
<!DOCTYPE svg PUBLIC "-//W3C//DTD SVG 20010904//EN"
 "http://www.w3.org/TR/2001/REC-SVG-20010904/DTD/svg10.dtd">
<svg version="1.0" xmlns="http://www.w3.org/2000/svg"
 width="64.000000pt" height="64.000000pt" viewBox="0 0 64.000000 64.000000"
 preserveAspectRatio="xMidYMid meet">

<g transform="translate(0.000000,64.000000) scale(0.100000,-0.100000)"
fill="#000000" stroke="none">
<path d="M0 320 l0 -320 320 0 320 0 0 320 0 320 -320 0 -320 0 0 -320z m630
0 l0 -310 -310 0 -310 0 0 310 0 310 310 0 310 0 0 -310z"/>
<path d="M20 320 l0 -300 131 0 c131 0 131 0 126 23 -3 12 -14 56 -25 97 -11
41 -23 87 -26 102 -4 16 -10 28 -14 28 -4 0 -19 -30 -32 -66 -14 -36 -28 -68
-31 -70 -5 -3 46 151 65 197 7 16 -37 103 -72 142 -8 9 -13 20 -10 23 8 8 87
-114 94 -145 3 -14 9 -35 14 -46 7 -17 9 -15 9 12 1 17 -4 35 -10 38 -6 4 -8
13 -5 20 6 16 -28 107 -55 149 -20 30 -19 29 10 -3 16 -19 33 -47 36 -62 8
-35 23 -46 32 -23 3 9 -3 38 -15 65 -11 27 -16 46 -10 43 5 -4 17 -22 25 -42
11 -26 17 -32 26 -23 25 25 37 12 37 -44 0 -30 4 -55 8 -55 8 0 60 84 80 130
10 23 10 22 5 -10 -3 -19 -14 -56 -24 -83 -19 -49 -64 -306 -55 -315 8 -7 13
12 31 112 25 139 61 243 92 263 14 10 37 29 51 43 27 26 24 19 -18 -45 -33
-50 -60 -118 -104 -265 -19 -63 -38 -124 -42 -135 -7 -17 -6 -18 8 -7 36 29
94 129 120 205 23 67 27 74 22 37 -8 -61 -47 -141 -102 -209 -25 -31 -49 -62
-55 -68 -7 -10 21 -13 137 -13 l146 0 0 300 0 300 -300 0 -300 0 0 -300z m178
14 c-4 -3 -12 5 -18 18 -12 22 -12 22 6 6 10 -10 15 -20 12 -24z"/>
<path d="M292 467 c-11 -12 -11 -31 -3 -92 6 -42 10 -100 10 -128 -1 -38 -5
-23 -14 58 -7 61 -13 112 -14 115 -1 2 -6 -1 -12 -7 -8 -8 -8 -34 1 -98 7 -47
10 -100 6 -116 -3 -19 -2 -28 4 -24 6 4 10 -10 10 -34 0 -22 5 -43 10 -46 6
-4 10 11 10 37 0 24 5 50 10 58 8 12 10 12 10 1 0 -32 11 0 20 60 6 35 13 75
16 88 4 21 3 23 -10 12 -8 -7 -17 -31 -19 -54 -3 -39 -4 -38 -6 13 -2 30 -6
82 -10 114 -5 51 -8 57 -19 43z"/>
</g>
</svg>
